<svg xmlns="http://www.w3.org/2000/svg" xmlns:xlink="http://www.w3.org/1999/xlink" version="1.1" x="0px" y="0px" viewBox="0 0 100 125" enable-background="new 0 0 100 100" xml:space="preserve"><path d="M80.5,55.9h-5.7v-5.8c0-0.9-0.7-1.6-1.6-1.6H51.6v-4.4h5.7c0.9,0,1.6-0.7,1.6-1.6V28c0-0.9-0.7-1.6-1.6-1.6H42.7  c-0.9,0-1.6,0.7-1.6,1.6v14.5c0,0.9,0.7,1.6,1.6,1.6h5.7v4.4H26.8c-0.9,0-1.6,0.7-1.6,1.6v5.8h-5.7c-0.9,0-1.6,0.7-1.6,1.6V72  c0,0.9,0.7,1.6,1.6,1.6h14.5c0.9,0,1.6-0.7,1.6-1.6V57.5c0-0.9-0.7-1.6-1.6-1.6h-5.7v-4.2h20v4.2h-5.7c-0.9,0-1.6,0.7-1.6,1.6V72  c0,0.9,0.7,1.6,1.6,1.6h14.5c0.9,0,1.6-0.7,1.6-1.6V57.5c0-0.9-0.7-1.6-1.6-1.6h-5.7v-4.2h20v4.2h-5.7c-0.9,0-1.6,0.7-1.6,1.6V72  c0,0.9,0.7,1.6,1.6,1.6h14.5c0.9,0,1.6-0.7,1.6-1.6V57.5C82.1,56.6,81.4,55.9,80.5,55.9z M32.5,59.1v11.3H21.1V59.1H32.5z   M55.7,59.1v11.3H44.3V59.1H55.7z M44.3,40.9V29.6h11.3v11.3H44.3z M78.9,70.4H67.5V59.1h11.3V70.4z"/><text x="0" y="115" fill="#000000" font-size="5px" font-weight="bold" font-family="'Helvetica Neue', Helvetica, Arial-Unicode, Arial, Sans-serif">Created by Gregor Cresnar</text><text x="0" y="120" fill="#000000" font-size="5px" font-weight="bold" font-family="'Helvetica Neue', Helvetica, Arial-Unicode, Arial, Sans-serif">from the Noun Project</text></svg>