<svg xmlns="http://www.w3.org/2000/svg" xmlns:xlink="http://www.w3.org/1999/xlink" version="1.1" x="0px" y="0px" viewBox="0 0 1133.9 1417.375" enable-background="new 0 0 1133.9 1133.9" xml:space="preserve"><path d="M972.1,473.1C972.1,473.1,972.1,473.1,972.1,473.1c-25.1,0-48.7,9.8-66.4,27.5c-16.5,16.5-26,38.2-27.3,61.4H700.4  c-1.1-31.9-13.4-61.9-35.4-85.6c-8.1-8.8-17.4-16.3-27.4-22.5l89.1-154.2c12.8,6.6,27.4,10.4,42.8,10.4c51.8,0,93.9-42.1,93.9-93.9  c0-51.8-42.1-93.9-93.9-93.9c-51.8,0-93.9,42.1-93.9,93.9c0,32.9,17,61.8,42.7,78.6l-89.1,154.2c-22.2-11.7-47.6-17.1-73.2-15.1  c-18.5,1.5-36.1,6.8-51.8,15.3l-89-154.2c5.5-3.6,10.7-7.7,15.4-12.4c17.7-17.7,27.5-41.3,27.5-66.4c0-51.8-42.1-93.9-93.9-93.9  c-51.8,0-93.9,42.1-93.9,93.9c0,51.8,42.1,93.9,93.9,93.9h0c15,0,29.5-3.6,42.5-10.2l89.1,154.2c-34.6,22-58.8,59.4-62.1,102.2  c-0.2,1.9-0.2,3.9-0.3,5.8H255.3c-2.6-49.4-43.6-88.8-93.6-88.8c-51.8,0-93.9,42.1-93.9,93.9c0,51.8,42.1,93.9,93.9,93.9  c50.2,0,91.2-39.6,93.6-89.2h178c1.1,32,13.3,62.1,35.4,86c8,8.7,17.2,16.2,27.1,22.4l-89,154.2c-12.8-6.5-27.2-10.3-42.5-10.3  c-51.8,0-93.9,42.1-93.9,93.9c0,51.8,42.1,93.9,93.9,93.9c51.8,0,93.9-42.1,93.9-93.9c0-33-17.2-62-43-78.8l89-154.2  c19.1,10.2,40.6,15.7,62.7,15.7c0,0,0,0,0,0c3.6,0,7.2-0.1,10.8-0.4c18.4-1.5,35.9-6.8,51.5-15.1l89.1,154.3  c-25.7,16.8-42.7,45.7-42.7,78.6c0,51.8,42.1,93.9,93.9,93.9c51.8,0,93.9-42.1,93.9-93.9c0-51.8-42.1-93.9-93.9-93.9  c-15.4,0-29.9,3.8-42.8,10.4l-89.1-154.3c34.8-21.9,59.1-59.5,62.4-102.3c0.2-2.1,0.3-4.1,0.3-6.1h178c2.5,49.6,43.5,89.2,93.6,89.2  c51.8,0,93.9-42.1,93.9-93.9C1066,515.2,1023.9,473.1,972.1,473.1z M642.9,664.5c-0.1-0.2-0.2-0.4-0.4-0.6l-43.8-43.8  c-1.9-1.9-5-1.9-6.9,0c-1.9,1.9-1.9,5,0,6.9l43.2,43.2c-8.7,5.8-18.1,10.5-28.1,13.9L565,642.2c-1.9-1.9-5-1.9-6.9,0  c-1.9,1.9-1.9,5,0,6.9l38.1,38.1c-6.3,1.5-12.7,2.7-19.3,3.2c-3.3,0.3-6.7,0.4-10.1,0.4c0,0,0,0,0,0c-3.2,0-6.3-0.2-9.5-0.4  l-42.8-42.8c-1.9-1.9-5-1.9-6.9,0c-1.9,1.9-1.9,5,0,6.9l33.6,33.6c-24.9-5.3-48-18.2-65.5-37.2c-23.7-25.7-35.2-59.1-32.5-94.1  c4.7-59.9,53.5-108.7,113.4-113.4c3.3-0.3,6.7-0.4,10.1-0.4c34.4,0,67.6,14.5,91,39.8c15.8,17.1,26.1,37.5,30.5,59.6l-34.3-34.3  c-1.9-1.9-5-1.9-6.9,0c-1.9,1.9-1.9,5,0,6.9l43.3,43.3c0.4,6.1,0.4,12.4-0.1,18.6c-0.5,6.8-1.7,13.5-3.3,20l-38.4-38.4  c-1.9-1.9-5-1.9-6.9,0c-1.9,1.9-1.9,5,0,6.9l42.1,42.1c-3.5,10-8.2,19.3-14.1,28l-43.3-43.3c-1.9-1.9-5-1.9-6.9,0  c-1.9,1.9-1.9,5,0,6.9l43.8,43.8c0.2,0.2,0.4,0.3,0.7,0.4C657.9,651.2,650.8,658.3,642.9,664.5z"/><text x="0" y="1148.9" fill="#000000" font-size="5px" font-weight="bold" font-family="'Helvetica Neue', Helvetica, Arial-Unicode, Arial, Sans-serif">Created by Alvaro Cabrera</text><text x="0" y="1153.9" fill="#000000" font-size="5px" font-weight="bold" font-family="'Helvetica Neue', Helvetica, Arial-Unicode, Arial, Sans-serif">from the Noun Project</text></svg>