<svg xmlns="http://www.w3.org/2000/svg" xmlns:xlink="http://www.w3.org/1999/xlink" version="1.1" x="0px" y="0px" viewBox="0 0 100 125" enable-background="new 0 0 100 100" xml:space="preserve"><path d="M80.4,46.9h-4.7v-6.1c0-0.9-0.7-1.6-1.6-1.6H51.6v-4.7h6c0.9,0,1.6-0.7,1.6-1.6V21.2c0-0.9-0.7-1.6-1.6-1.6H42.4  c-0.9,0-1.6,0.7-1.6,1.6v11.7c0,0.9,0.7,1.6,1.6,1.6h6v4.7H25.9c-0.9,0-1.6,0.7-1.6,1.6v6.1h-4.7c-0.9,0-1.6,0.7-1.6,1.6v9.1  c0,0.9,0.7,1.6,1.6,1.6h12.6c0.9,0,1.6-0.7,1.6-1.6v-9.1c0-0.9-0.7-1.6-1.6-1.6h-4.7v-4.5h20.9v4.5h-4.7c-0.9,0-1.6,0.7-1.6,1.6v9.1  c0,0.9,0.7,1.6,1.6,1.6h4.7v3.7H32.1c-0.9,0-1.6,0.7-1.6,1.6v5.3h-2.9c-0.9,0-1.6,0.7-1.6,1.6v7.4c0,0.9,0.7,1.6,1.6,1.6h8.9  c0.9,0,1.6-0.7,1.6-1.6v-7.4c0-0.9-0.7-1.6-1.6-1.6h-2.9v-3.7h14.7v3.5c0,0.1,0,0.1,0,0.2h-2.9c-0.9,0-1.6,0.7-1.6,1.6v7.4  c0,0.9,0.7,1.6,1.6,1.6h8.9c0.9,0,1.6-0.7,1.6-1.6v-7.4c0-0.9-0.7-1.6-1.6-1.6h-2.9c0-0.1,0-0.1,0-0.2v-3.5h14.7v3.7h-2.9  c-0.9,0-1.6,0.7-1.6,1.6v7.4c0,0.9,0.7,1.6,1.6,1.6h8.9c0.9,0,1.6-0.7,1.6-1.6v-7.4c0-0.9-0.7-1.6-1.6-1.6h-2.9v-5.3  c0-0.9-0.7-1.6-1.6-1.6H51.6v-3.7h4.7c0.9,0,1.6-0.7,1.6-1.6v-9.1c0-0.9-0.7-1.6-1.6-1.6h-4.7v-4.5h20.9v4.5h-4.7  c-0.9,0-1.6,0.7-1.6,1.6v9.1c0,0.9,0.7,1.6,1.6,1.6h12.6c0.9,0,1.6-0.7,1.6-1.6v-9.1C82,47.6,81.3,46.9,80.4,46.9z M30.5,50.1V56  h-9.4v-5.9H30.5z M35,72.9v4.2h-5.7v-4.2H35z M70.7,72.9v4.2H65v-4.2H70.7z M52.9,72.9v4.2h-5.7v-4.2H52.9z M54.7,50.1V56h-9.4v-5.9  H54.7z M44,31.3v-8.5H56v8.5H44z M78.8,56h-9.4v-5.9h9.4V56z"/><text x="0" y="115" fill="#000000" font-size="5px" font-weight="bold" font-family="'Helvetica Neue', Helvetica, Arial-Unicode, Arial, Sans-serif">Created by Gregor Cresnar</text><text x="0" y="120" fill="#000000" font-size="5px" font-weight="bold" font-family="'Helvetica Neue', Helvetica, Arial-Unicode, Arial, Sans-serif">from the Noun Project</text></svg>