<svg xmlns="http://www.w3.org/2000/svg" xmlns:xlink="http://www.w3.org/1999/xlink" version="1.1" x="0px" y="0px" viewBox="0 0 1000 1250" enable-background="new 0 0 1000 1000" xml:space="preserve"><path d="M830.8,419.5c-41.8,0-76.2,32-80.1,72.7H647.2c-4-52.7-48.2-94.4-101.9-94.4c-53.7,0-97.9,41.7-101.9,94.4H334.4  c-2.3-37.6-21.7-70.7-50.4-91.6l55.9-96.7c13,6,27.5,9.4,42.7,9.4c53.7,0,97.9-41.7,101.9-94.4h109.2c3.9,40.7,38.3,72.7,80.1,72.7  c44.4,0,80.5-36.1,80.5-80.5c0-44.4-36.1-80.5-80.5-80.5c-41.8,0-76.2,32-80.1,72.7H484.5c-4-52.7-48.2-94.4-101.9-94.4  c-56.3,0-102.2,45.8-102.2,102.2c0,35.6,18.3,67,46,85.3l-55.4,96c-17.6-9.7-37.8-15.2-59.2-15.2c-67.8,0-123,55.2-123,123  c0,67.8,55.2,123,123,123c21.5,0,41.7-5.5,59.2-15.2l55.4,96c-27.7,18.3-46,49.7-46,85.3c0,56.3,45.8,102.2,102.2,102.2  c55.4,0,100.7-44.4,102.1-99.5h108.9c3.9,40.7,38.3,72.7,80.1,72.7c44.4,0,80.5-36.1,80.5-80.5c0-44.4-36.1-80.5-80.5-80.5  c-41.8,0-76.2,32-80.1,72.7H483.9c-6.3-50.3-49.4-89.4-101.4-89.4c-15.2,0-29.7,3.4-42.7,9.4L284,599.4c28.7-21,48-54,50.4-91.6  h109.1c4,52.7,48.2,94.4,101.9,94.4c53.7,0,97.9-41.7,101.9-94.4h103.5c3.9,40.7,38.3,72.7,80.1,72.7c44.4,0,80.5-36.1,80.5-80.5  C911.3,455.6,875.2,419.5,830.8,419.5z"/><text x="0" y="1015" fill="#000000" font-size="5px" font-weight="bold" font-family="'Helvetica Neue', Helvetica, Arial-Unicode, Arial, Sans-serif">Created by Alvaro Cabrera</text><text x="0" y="1020" fill="#000000" font-size="5px" font-weight="bold" font-family="'Helvetica Neue', Helvetica, Arial-Unicode, Arial, Sans-serif">from the Noun Project</text></svg>